<svg version="1.1" id="Layer_1" xmlns="http://www.w3.org/2000/svg" xmlns:xlink="http://www.w3.org/1999/xlink" x="0px" y="0px"
	 width="100%" viewBox="0 0 160 164" enable-background="new 0 0 160 164" xml:space="preserve">
<path fill="#ECECEE" opacity="1.000000" stroke="none" 
	d="
M23.000000,83.000000 
	C26.981482,76.164902 32.232216,70.829712 39.095879,66.576874 
	C41.299706,65.211349 41.175896,59.953907 41.943256,56.439102 
	C42.936413,51.890091 43.889938,47.322922 44.569065,42.720562 
	C44.777184,41.310135 44.247696,39.668270 43.681164,38.286011 
	C39.986252,29.270884 38.777939,22.603409 46.777107,15.838062 
	C48.497581,14.382964 51.047844,13.908983 53.825951,12.881843 
	C54.708485,12.581449 54.896473,12.321239 55.000000,12.000000 
	C66.687729,11.988923 78.375465,11.977845 90.641022,12.201433 
	C91.419373,12.706983 91.679756,12.894950 92.000000,13.000000 
	C98.099510,15.260433 104.823265,16.564577 110.134918,20.031929 
	C116.284737,24.046425 122.122322,29.299194 126.371429,35.246189 
	C130.412033,40.901375 132.318375,48.109066 134.993378,54.703003 
	C136.882187,59.358936 136.925400,64.137711 142.539886,67.652611 
	C150.165558,72.426590 155.466370,79.918594 158.344193,89.348305 
	C160.776962,97.319756 159.282440,104.120148 156.888474,111.271973 
	C156.641602,112.009460 155.493286,112.445213 154.315857,112.646378 
	C153.756683,111.792938 153.644882,111.314087 153.614517,110.485367 
	C153.773376,109.421188 153.850815,108.706902 154.243286,107.713684 
	C154.353073,102.625954 154.147812,97.817139 153.965698,92.646645 
	C153.875534,91.573883 153.762238,90.862808 153.762741,89.842712 
	C153.354034,88.913345 152.831528,88.292999 152.254242,87.315918 
	C151.363297,85.345016 150.527130,83.730843 149.743713,81.785416 
	C148.503082,80.015167 147.209717,78.576157 145.780609,76.871399 
	C144.893692,75.967270 144.142517,75.328896 143.297791,74.378113 
	C142.435486,73.796791 141.666733,73.527870 140.685959,73.026672 
	C139.600937,72.217567 138.727951,71.640755 137.875671,70.710724 
	C135.935989,68.237335 133.975555,66.117165 132.240784,63.869934 
	C132.171753,63.112633 131.877045,62.482403 131.450226,61.444294 
	C131.143005,59.036556 130.967911,57.036694 131.073364,54.926308 
	C130.911087,54.207027 130.468277,53.598270 129.799088,52.692070 
	C127.403908,45.216976 123.913612,38.804798 118.771774,33.100155 
	C118.282013,32.175941 117.619263,31.601048 116.735245,31.006205 
	C116.513969,30.986256 116.070862,30.953289 116.035202,30.639606 
	C115.390862,29.824106 114.782181,29.322290 114.087540,28.909512 
	C114.001579,28.998550 114.179131,28.826052 114.154770,28.517395 
	C113.354218,27.659195 112.578026,27.109652 111.491653,26.365891 
	C108.651726,24.893822 106.121994,23.615965 103.405212,22.048607 
	C98.427422,20.328520 93.636665,18.897932 88.400436,17.350521 
	C77.559158,17.164478 67.160347,17.218557 56.769035,16.964905 
	C52.654957,16.864479 49.754631,18.251371 47.572990,21.956606 
	C42.658348,27.987610 42.817680,30.540445 48.230545,35.159584 
	C48.900768,35.952198 49.371315,36.541630 49.871712,37.564362 
	C50.328537,38.742950 50.755520,39.488235 51.072289,40.613255 
	C49.844063,43.258652 48.726048,45.524307 47.268562,47.895462 
	C45.915215,51.912125 44.471363,55.772911 44.005539,59.748299 
	C43.516605,63.920872 44.800133,68.576988 38.613384,69.618324 
	C37.840179,69.748459 37.317867,71.369186 36.406349,72.516220 
	C34.329437,74.127060 32.525478,75.520943 30.380184,76.935173 
	C28.748907,79.028069 27.458963,81.100624 26.150604,83.168533 
	C26.132187,83.163895 26.172264,83.167503 25.777761,83.119354 
	C24.588839,83.047478 23.794420,83.023735 23.000000,83.000000 
z"/>
<path fill="#EEF0F2" opacity="1.000000" stroke="none" 
	d="
M113.000000,147.000000 
	C106.198364,155.910126 96.601959,161.061295 86.497124,164.586105 
	C81.323425,166.390823 75.001747,164.660858 69.236237,165.063248 
	C57.127392,165.908310 45.678917,164.138718 35.095825,156.973785 
	C35.034729,155.733322 35.065323,155.227356 35.484070,154.672318 
	C41.567448,156.483383 47.262672,158.343536 53.006805,160.450760 
	C53.339794,160.876831 53.623875,161.055847 53.981617,161.580017 
	C54.866776,162.127869 55.678272,162.330566 56.897278,162.583618 
	C58.919384,162.589401 60.533981,162.544846 62.588753,162.610596 
	C66.968437,162.632202 70.907936,162.543488 75.199089,162.646515 
	C76.875977,162.740082 78.201210,162.641922 79.855026,162.689087 
	C80.822411,162.307785 81.461235,161.781143 82.302956,161.100281 
	C82.682098,160.682144 82.858337,160.418213 83.443497,160.186340 
	C87.566826,159.043594 91.547020,158.371292 94.935074,156.579407 
	C100.393433,153.692566 105.461266,150.067337 111.068359,146.861450 
	C111.961769,146.979248 112.480881,146.989624 113.000000,147.000000 
z"/>
<path fill="#BABABC" opacity="1.000000" stroke="none" 
	d="
M22.980770,83.337997 
	C23.794420,83.023735 24.588839,83.047478 25.806866,83.510483 
	C22.766712,92.364464 21.851757,101.089821 23.548069,109.882919 
	C20.328592,110.509933 17.381762,110.517380 14.976757,111.662643 
	C8.745282,114.630081 8.548924,120.195564 9.330910,125.991150 
	C8.656424,122.835831 8.169950,119.769638 8.069297,116.690826 
	C8.018564,115.139023 8.667461,113.564339 9.338633,112.037506 
	C10.506278,111.174904 11.335290,110.274788 12.606865,109.323212 
	C15.623491,109.072205 18.197554,108.872658 20.953480,108.659004 
	C20.953480,105.971550 21.200480,103.789581 20.873985,101.697083 
	C20.620649,100.073448 19.651161,98.561562 19.000000,97.000000 
	C18.960823,95.931625 18.921644,94.863243 19.292692,93.453293 
	C20.887199,91.234055 25.296068,90.040749 21.000000,87.000000 
	C21.653847,85.891998 22.307692,84.784004 22.980770,83.337997 
z"/>
<path fill="#F6F7F9" opacity="1.000000" stroke="none" 
	d="
M35.095921,154.721390 
	C35.065323,155.227356 35.034729,155.733322 35.002068,156.619644 
	C22.811455,152.694931 15.021843,143.671738 8.998400,132.377960 
	C9.000000,132.000000 9.001492,131.998627 9.356101,131.978653 
	C11.349610,133.909027 12.840644,136.012207 14.661784,137.774200 
	C17.450876,140.472702 20.467432,142.936081 23.406219,145.541168 
	C23.424995,145.583054 23.503893,145.630035 23.388290,145.974152 
	C24.141212,146.896439 25.009739,147.474609 26.111822,148.215973 
	C26.968534,148.807739 27.591686,149.236313 28.142273,149.987976 
	C28.725233,150.475128 29.380760,150.639206 30.373398,150.838379 
	C32.172314,152.156113 33.634117,153.438751 35.095921,154.721390 
z"/>
<path fill="#F6F7F8" opacity="1.000000" stroke="none" 
	d="
M153.000000,114.000000 
	C152.299011,118.534927 146.652756,121.260529 140.712585,119.886032 
	C138.065353,119.273483 135.440292,118.564980 132.644669,117.859520 
	C131.979431,119.573418 131.357483,121.175758 130.268143,122.540024 
	C129.554169,121.203003 129.307602,120.104042 129.031448,118.639915 
	C129.138565,117.560143 129.275269,116.845543 129.727081,116.085762 
	C130.894730,114.973427 131.747253,113.906258 132.446243,113.031281 
	C133.500107,113.376564 134.618835,113.743088 136.038193,114.325058 
	C141.135162,118.781868 145.999496,116.916603 151.156799,114.718582 
	C151.963928,114.489944 152.481964,114.244972 153.000000,114.000000 
z"/>
<path fill="#B6B7B8" opacity="1.000000" stroke="none" 
	d="
M129.061035,119.005081 
	C129.307602,120.104042 129.554169,121.203003 129.900375,122.650986 
	C125.729546,129.449127 121.459091,135.898254 116.891174,142.805450 
	C116.294594,143.427429 116.096687,143.672928 116.000000,144.000000 
	C115.215446,144.980667 114.430885,145.961334 113.323166,146.970993 
	C112.480881,146.989624 111.961769,146.979248 111.147484,146.525146 
	C118.980019,138.440063 124.482361,129.033157 129.061035,119.005081 
z"/>
<path fill="#F6F7F9" opacity="1.000000" stroke="none" 
	d="
M8.648592,112.091583 
	C8.667461,113.564339 8.018564,115.139023 8.069297,116.690826 
	C8.169950,119.769638 8.656424,122.835831 9.430791,126.304062 
	C9.904231,127.136604 9.930323,127.572319 9.701084,128.247833 
	C9.297667,129.657959 9.149579,130.828293 9.001492,131.998627 
	C9.001492,131.998627 9.000000,132.000000 9.000000,132.000000 
	C2.630295,122.657036 1.815859,122.755730 8.648592,112.091583 
z"/>
<path fill="#FCFCFD" opacity="1.000000" stroke="none" 
	d="
M18.999590,97.425873 
	C19.651161,98.561562 20.620649,100.073448 20.873985,101.697083 
	C21.200480,103.789581 20.953480,105.971550 20.953480,108.659004 
	C18.197554,108.872658 15.623491,109.072205 12.551964,108.979401 
	C12.036332,108.458031 12.018166,108.229012 12.000000,108.000000 
	C13.850276,107.566078 15.700553,107.132156 17.556162,106.696983 
	C18.022039,103.841293 18.510609,100.846519 18.999590,97.425873 
z"/>
<path fill="#F4F5F7" opacity="1.000000" stroke="none" 
	d="
M20.636681,87.112778 
	C25.296068,90.040749 20.887199,91.234055 19.351460,93.055855 
	C19.424454,91.075188 19.848907,89.150375 20.636681,87.112778 
z"/>
<path fill="#F6F7F9" opacity="1.000000" stroke="none" 
	d="
M11.665186,108.065506 
	C12.018166,108.229012 12.036332,108.458031 12.109401,109.030861 
	C11.335290,110.274788 10.506278,111.174904 9.338633,112.037506 
	C9.776791,110.710335 10.553582,109.420677 11.665186,108.065506 
z"/>
<path fill="#595A5C" opacity="1.000000" stroke="none" 
	d="
M153.060532,113.749954 
	C152.481964,114.244972 151.963928,114.489944 151.144547,114.395386 
	C151.739838,112.982323 152.636475,111.908791 153.533112,110.835251 
	C153.644882,111.314087 153.756683,111.792938 153.934235,112.635895 
	C153.707016,113.166634 153.414047,113.333275 153.060532,113.749954 
z"/>
<path fill="#EEF0F2" opacity="1.000000" stroke="none" 
	d="
M116.262421,143.951172 
	C116.096687,143.672928 116.294594,143.427429 116.796860,143.131760 
	C116.841614,143.300781 116.683228,143.601562 116.262421,143.951172 
z"/>
<path fill="#FFFFFF" opacity="1.000000" stroke="none" 
	d="
M91.970657,12.724941 
	C91.679756,12.894950 91.419373,12.706983 91.109428,12.218050 
	C91.313774,12.149961 91.627541,12.299921 91.970657,12.724941 
z"/>
<path fill="#FFFFFF" opacity="1.000000" stroke="none" 
	d="
M54.724949,12.029354 
	C54.896473,12.321239 54.708485,12.581449 54.218018,12.890314 
	C54.149963,12.686235 54.299931,12.372473 54.724949,12.029354 
z"/>
<path fill="#0C0C0C" opacity="1.000000" stroke="none" 
	d="
M153.614532,110.485367 
	C152.636475,111.908791 151.739838,112.982323 150.855469,114.379059 
	C145.999496,116.916603 141.135162,118.781868 136.000046,113.968124 
	C134.715103,111.777344 133.768936,110.158920 132.822784,108.540504 
	C132.354630,108.480949 131.886475,108.421387 131.418320,108.361832 
	C130.749542,110.951530 130.080750,113.541237 129.411972,116.130936 
	C129.275269,116.845543 129.138565,117.560143 129.031448,118.639915 
	C124.482361,129.033157 118.980019,138.440063 110.773193,146.417740 
	C105.461266,150.067337 100.393433,153.692566 94.935074,156.579407 
	C91.547020,158.371292 87.566826,159.043594 83.267670,159.899261 
	C80.071098,160.538330 77.459267,161.496567 74.847443,162.454788 
	C70.907936,162.543488 66.968437,162.632202 62.479145,162.292755 
	C58.938873,161.310959 55.948387,160.757309 52.957901,160.203674 
	C47.262672,158.343536 41.567448,156.483383 35.484074,154.672318 
	C33.634117,153.438751 32.172314,152.156113 30.316374,150.524170 
	C29.353106,150.004868 28.783972,149.834869 28.214838,149.664886 
	C27.591686,149.236313 26.968534,148.807739 26.101242,147.912277 
	C25.072699,146.840271 24.288296,146.235153 23.503893,145.630035 
	C23.503893,145.630035 23.424995,145.583054 23.349369,145.209106 
	C18.834635,139.226120 14.395526,133.617081 9.956415,128.008041 
	C9.930323,127.572319 9.904231,127.136604 9.778257,126.387970 
	C8.548924,120.195564 8.745282,114.630081 14.976757,111.662643 
	C17.381762,110.517380 20.328592,110.509933 23.548069,109.882919 
	C21.851757,101.089821 22.766712,92.364464 26.201370,83.558624 
	C26.172264,83.167503 26.132187,83.163895 26.467209,83.056931 
	C28.108658,80.938248 29.415089,78.926544 30.721516,76.914833 
	C32.525478,75.520943 34.329437,74.127060 36.737564,72.680244 
	C40.127991,70.228416 45.056953,70.235222 45.642433,65.377350 
	C46.348255,59.520985 46.957172,53.652950 47.608036,47.789967 
	C48.726048,45.524307 49.844063,43.258652 51.304428,40.434082 
	C51.045143,38.960468 50.443501,38.045761 49.841862,37.131058 
	C49.371315,36.541630 48.900768,35.952198 48.205627,34.749058 
	C47.961712,30.057585 47.942387,25.979824 47.923058,21.902063 
	C49.754631,18.251371 52.654957,16.864479 56.769035,16.964905 
	C67.160347,17.218557 77.559158,17.164478 88.494461,17.690247 
	C93.886719,19.543900 98.739487,20.941004 103.592255,22.338108 
	C106.121994,23.615965 108.651726,24.893822 111.488113,26.694851 
	C112.589546,27.754034 113.384338,28.290045 114.179131,28.826054 
	C114.179131,28.826052 114.001579,28.998550 114.037262,29.259087 
	C114.738914,29.997511 115.404884,30.475399 116.070862,30.953289 
	C116.070862,30.953289 116.513969,30.986256 116.729370,31.330898 
	C117.496117,32.266853 118.047447,32.858162 118.598785,33.449471 
	C123.913612,38.804798 127.403908,45.216976 129.665741,52.989044 
	C130.103470,54.067913 130.448151,54.552368 130.792816,55.036827 
	C130.967911,57.036694 131.143005,59.036556 131.236313,61.760757 
	C131.093964,62.990677 131.033401,63.496265 130.723404,64.228455 
	C129.709152,70.259956 134.518250,69.839745 137.854950,71.063942 
	C138.727951,71.640755 139.600937,72.217567 140.735962,73.366585 
	C141.795776,74.189362 142.593552,74.439941 143.391327,74.690521 
	C144.142517,75.328896 144.893692,75.967270 145.724152,77.219162 
	C147.099274,79.260674 148.395111,80.688675 149.690948,82.116669 
	C150.527130,83.730843 151.363297,85.345016 152.134247,87.629868 
	C152.595642,88.917603 153.122284,89.534668 153.648926,90.151733 
	C153.762238,90.862808 153.875534,91.573883 153.718903,92.968513 
	C153.608734,98.432251 153.768494,103.212433 153.928253,107.992615 
	C153.850815,108.706902 153.773376,109.421188 153.614532,110.485367 
M110.066078,37.931839 
	C110.066078,37.931839 110.236526,37.732910 110.176292,37.075668 
	C109.095406,36.424923 108.014519,35.774178 106.580643,34.755630 
	C106.317726,34.540543 106.054802,34.325455 105.735062,33.423405 
	C102.098839,31.755478 98.462608,30.087549 94.217827,28.263105 
	C93.799316,28.264158 93.380806,28.265211 92.566437,27.647688 
	C90.661453,27.211567 88.756477,26.775446 85.949997,26.156075 
	C76.009369,26.254559 66.068741,26.353045 55.392784,26.517359 
	C55.479862,27.692226 55.566940,28.867096 55.833485,30.617344 
	C56.050045,30.955717 56.266602,31.294092 56.365891,32.309692 
	C57.707760,33.744419 58.894203,35.379162 60.425999,36.569481 
	C63.074833,38.627819 63.932671,40.197987 60.497868,42.467640 
	C59.230667,43.304977 58.835629,45.462204 57.733212,47.667805 
	C53.543434,54.553844 53.884518,62.219204 53.732304,69.851646 
	C53.690311,71.957283 52.617371,74.042374 51.389328,76.119690 
	C50.977745,76.190567 50.566166,76.261452 49.426048,76.041084 
	C46.991680,77.385826 44.557312,78.730560 41.603226,80.487267 
	C39.818783,82.138908 38.034340,83.790550 35.556110,85.371613 
	C33.975979,89.909004 31.893185,94.352028 31.016556,99.021492 
	C30.540462,101.557465 32.116295,104.478661 33.343727,107.639450 
	C33.580326,107.643524 33.816921,107.647598 34.586689,107.958961 
	C35.682911,105.276306 36.779137,102.593658 38.547142,99.387344 
	C43.034622,99.233459 47.522106,99.079575 52.483982,99.413818 
	C58.393017,102.297745 57.953972,107.895874 58.173210,113.841423 
	C58.159184,114.566673 58.145157,115.291931 57.652077,116.485748 
	C57.192097,117.695686 56.732121,118.905632 56.020153,120.607597 
	C55.922333,120.962074 55.824516,121.316551 55.061096,121.823074 
	C53.150520,123.597778 51.239944,125.372490 49.050522,127.492180 
	C49.050522,127.492180 48.946407,127.923378 48.211994,128.037231 
	C45.812489,129.051331 43.412987,130.065430 40.209309,131.015594 
	C39.135246,131.042831 38.061184,131.070068 36.433960,130.648346 
	C30.188484,129.544327 25.824408,125.840591 22.216259,120.821999 
	C21.563723,119.914383 19.530172,119.999657 18.134192,119.626549 
	C18.106194,120.982834 17.537382,122.690216 18.148520,123.631561 
	C20.235691,126.846451 22.737888,129.791885 25.420963,133.217712 
	C25.661203,133.455978 25.901442,133.694229 26.091560,134.617294 
	C28.084541,136.363693 30.077522,138.110092 32.405819,140.235229 
	C32.651585,140.465927 32.897350,140.696640 33.176708,141.615326 
	C37.158062,143.981277 41.139416,146.347229 45.773769,148.953247 
	C46.873806,149.270798 47.973839,149.588348 49.079624,150.662338 
	C53.052814,151.991684 56.942291,154.042740 61.014885,154.515121 
	C73.255264,155.934952 84.780685,153.362320 95.822769,146.224899 
	C98.550873,144.153046 101.278976,142.081192 104.689095,139.932678 
	C107.123833,136.953186 109.558563,133.973679 112.000000,131.000000 
	C112.000000,131.000000 111.994133,130.993530 112.685692,130.894333 
	C113.776268,128.587143 114.866844,126.279968 116.355080,123.345451 
	C117.964386,118.298584 119.573692,113.251717 121.835136,107.960487 
	C123.558731,103.606339 126.594666,100.585777 131.851410,98.991974 
	C133.571335,98.962051 135.291260,98.932129 137.562088,99.394203 
	C138.425613,101.059006 139.151810,102.816490 140.193939,104.360771 
	C141.111465,105.720451 142.382248,106.841766 143.497025,108.068336 
	C144.319626,106.820076 145.822479,105.578148 145.834198,104.322327 
	C145.866196,100.888542 145.269974,97.448891 144.964050,93.370834 
	C144.897003,92.949280 144.829956,92.527718 145.010284,91.414566 
	C142.969543,88.680511 140.928787,85.946457 138.517685,82.839874 
	C138.260178,82.602608 138.002670,82.365341 137.740143,81.434731 
	C134.111496,79.735977 130.482864,78.037224 126.242233,76.183167 
	C125.822342,76.171440 125.402458,76.159714 124.367470,75.600632 
	C123.892410,74.164505 123.213455,72.760017 122.984718,71.285675 
	C122.508064,68.213371 122.269531,65.104118 122.003326,61.197819 
	C121.862968,59.854809 121.722610,58.511803 121.828690,56.437366 
	C119.199356,51.658577 116.570023,46.879791 113.600922,41.748436 
	C113.368546,41.519073 113.142365,41.283756 112.976952,40.374065 
	C112.072617,39.502758 111.168274,38.631451 110.066078,37.931839 
z"/>
<path fill="#8C8D8E" opacity="1.000000" stroke="none" 
	d="
M47.268562,47.895462 
	C46.957172,53.652950 46.348255,59.520985 45.642433,65.377350 
	C45.056953,70.235222 40.127991,70.228416 37.010513,72.463287 
	C37.317867,71.369186 37.840179,69.748459 38.613384,69.618324 
	C44.800133,68.576988 43.516605,63.920872 44.005539,59.748299 
	C44.471363,55.772911 45.915215,51.912125 47.268562,47.895462 
z"/>
<path fill="#5F6061" opacity="1.000000" stroke="none" 
	d="
M47.572990,21.956606 
	C47.942387,25.979824 47.961712,30.057585 48.005955,34.545872 
	C42.817680,30.540445 42.658348,27.987610 47.572990,21.956606 
z"/>
<path fill="#4C4C4D" opacity="1.000000" stroke="none" 
	d="
M103.405212,22.048607 
	C98.739487,20.941004 93.886719,19.543900 88.939926,17.807068 
	C93.636665,18.897932 98.427422,20.328520 103.405212,22.048607 
z"/>
<path fill="#595A5C" opacity="1.000000" stroke="none" 
	d="
M154.243286,107.713684 
	C153.768494,103.212433 153.608734,98.432251 153.695755,93.330200 
	C154.147812,97.817139 154.353073,102.625954 154.243286,107.713684 
z"/>
<path fill="#4B4C4D" opacity="1.000000" stroke="none" 
	d="
M137.875671,70.710724 
	C134.518250,69.839745 129.709152,70.259956 130.983978,64.227417 
	C131.667709,63.998856 131.841415,63.997925 132.015137,63.996994 
	C133.975555,66.117165 135.935989,68.237335 137.875671,70.710724 
z"/>
<path fill="#BABABC" opacity="1.000000" stroke="none" 
	d="
M30.380184,76.935173 
	C29.415089,78.926544 28.108658,80.938248 26.485624,83.061569 
	C27.458963,81.100624 28.748907,79.028069 30.380184,76.935173 
z"/>
<path fill="#4B4C4D" opacity="1.000000" stroke="none" 
	d="
M149.743713,81.785416 
	C148.395111,80.688675 147.099274,79.260674 145.859894,77.484917 
	C147.209717,78.576157 148.503082,80.015167 149.743713,81.785416 
z"/>
<path fill="#5F6061" opacity="1.000000" stroke="none" 
	d="
M49.871712,37.564362 
	C50.443501,38.045761 51.045143,38.960468 51.414642,40.054344 
	C50.755520,39.488235 50.328537,38.742950 49.871712,37.564362 
z"/>
<path fill="#4C4C4D" opacity="1.000000" stroke="none" 
	d="
M114.154770,28.517395 
	C113.384338,28.290045 112.589546,27.754034 111.798294,26.889065 
	C112.578026,27.109652 113.354218,27.659195 114.154770,28.517395 
z"/>
<path fill="#595A5C" opacity="1.000000" stroke="none" 
	d="
M153.762741,89.842712 
	C153.122284,89.534668 152.595642,88.917603 152.189011,87.986588 
	C152.831528,88.292999 153.354034,88.913345 153.762741,89.842712 
z"/>
<path fill="#4B4C4D" opacity="1.000000" stroke="none" 
	d="
M143.297791,74.378113 
	C142.593552,74.439941 141.795776,74.189362 140.947998,73.598869 
	C141.666733,73.527870 142.435486,73.796791 143.297791,74.378113 
z"/>
<path fill="#B1B2B4" opacity="1.000000" stroke="none" 
	d="
M132.240784,63.869930 
	C131.841415,63.997925 131.667709,63.998856 131.233398,64.000824 
	C131.033401,63.496265 131.093964,62.990677 131.368439,62.168633 
	C131.877045,62.482403 132.171753,63.112633 132.240784,63.869930 
z"/>
<path fill="#B1B2B4" opacity="1.000000" stroke="none" 
	d="
M131.073364,54.926304 
	C130.448151,54.552368 130.103470,54.067913 129.892120,53.286488 
	C130.468277,53.598270 130.911087,54.207027 131.073364,54.926304 
z"/>
<path fill="#4C4C4D" opacity="1.000000" stroke="none" 
	d="
M116.035202,30.639606 
	C115.404884,30.475399 114.738914,29.997511 114.123222,29.170048 
	C114.782181,29.322290 115.390862,29.824106 116.035202,30.639606 
z"/>
<path fill="#B1B2B4" opacity="1.000000" stroke="none" 
	d="
M118.771774,33.100155 
	C118.047447,32.858162 117.496117,32.266853 116.950645,31.350849 
	C117.619263,31.601048 118.282013,32.175941 118.771774,33.100155 
z"/>
<path fill="#494A4A" opacity="1.000000" stroke="none" 
	d="
M53.006805,160.450745 
	C55.948387,160.757309 58.938873,161.310959 62.038963,162.182449 
	C60.533981,162.544846 58.919384,162.589401 56.758003,162.290634 
	C55.443466,161.709824 54.675709,161.472336 53.907951,161.234863 
	C53.623875,161.055847 53.339794,160.876831 53.006805,160.450745 
z"/>
<path fill="#494A4A" opacity="1.000000" stroke="none" 
	d="
M75.199089,162.646515 
	C77.459267,161.496567 80.071098,160.538330 82.858749,159.867188 
	C82.858337,160.418213 82.682098,160.682144 81.992035,161.024551 
	C80.827621,161.583282 80.177032,162.063522 79.526451,162.543762 
	C78.201210,162.641922 76.875977,162.740082 75.199089,162.646515 
z"/>
<path fill="#BDBEBF" opacity="1.000000" stroke="none" 
	d="
M53.981613,161.580017 
	C54.675709,161.472336 55.443466,161.709824 56.350494,162.240295 
	C55.678272,162.330566 54.866776,162.127869 53.981613,161.580017 
z"/>
<path fill="#BDBEBF" opacity="1.000000" stroke="none" 
	d="
M79.855026,162.689087 
	C80.177032,162.063522 80.827621,161.583282 81.789124,161.178772 
	C81.461235,161.781143 80.822411,162.307785 79.855026,162.689087 
z"/>
<path fill="#BABABC" opacity="1.000000" stroke="none" 
	d="
M9.701085,128.247833 
	C14.395526,133.617081 18.834635,139.226120 23.330593,145.167206 
	C20.467432,142.936081 17.450876,140.472702 14.661784,137.774200 
	C12.840644,136.012207 11.349610,133.909027 9.356102,131.978653 
	C9.149579,130.828293 9.297667,129.657959 9.701085,128.247833 
z"/>
<path fill="#BABABC" opacity="1.000000" stroke="none" 
	d="
M23.388290,145.974152 
	C24.288296,146.235153 25.072699,146.840271 25.867683,147.749084 
	C25.009739,147.474609 24.141212,146.896439 23.388290,145.974152 
z"/>
<path fill="#BABABC" opacity="1.000000" stroke="none" 
	d="
M28.142273,149.987976 
	C28.783972,149.834869 29.353106,150.004868 29.979263,150.489075 
	C29.380760,150.639206 28.725233,150.475128 28.142273,149.987976 
z"/>
<path fill="#B6B7B8" opacity="1.000000" stroke="none" 
	d="
M129.727081,116.085762 
	C130.080750,113.541237 130.749542,110.951530 131.418320,108.361832 
	C131.886475,108.421387 132.354630,108.480949 132.822784,108.540504 
	C133.768936,110.158920 134.715103,111.777344 135.699417,113.752686 
	C134.618835,113.743088 133.500107,113.376564 132.446243,113.031281 
	C131.747253,113.906258 130.894730,114.973427 129.727081,116.085762 
z"/>
<path fill="#FCFBFB" opacity="1.000000" stroke="none" 
	d="
M49.073875,149.905899 
	C47.973839,149.588348 46.873806,149.270798 45.400436,148.495270 
	C41.065777,145.667297 37.104446,143.297318 33.143112,140.927338 
	C32.897350,140.696640 32.651585,140.465927 32.224522,139.707504 
	C30.076044,137.430679 28.108862,135.681595 26.141680,133.932495 
	C25.901442,133.694229 25.661203,133.455978 25.251619,132.670227 
	C24.351940,130.301910 23.621605,128.481049 22.486847,125.651909 
	C27.658916,129.055008 31.258476,133.138962 36.987122,131.097290 
	C38.061184,131.070068 39.135246,131.042831 40.841881,131.308228 
	C43.965107,130.375031 46.455757,129.149200 48.946404,127.923370 
	C48.946407,127.923378 49.050522,127.492180 49.551872,127.349457 
	C51.944374,125.361504 53.835533,123.516266 55.726696,121.671028 
	C55.824516,121.316551 55.922333,120.962074 56.465813,120.329315 
	C57.318024,118.706413 57.724579,117.361801 58.131134,116.017181 
	C58.145157,115.291931 58.159184,114.566673 58.615368,113.371109 
	C59.047295,110.261475 59.468327,107.528778 58.922020,105.005531 
	C58.171776,101.540359 56.748077,98.165009 52.009586,98.925690 
	C47.522106,99.079575 43.034622,99.233459 37.844475,99.658096 
	C36.112381,102.503120 35.082951,105.077393 34.053520,107.651672 
	C33.816921,107.647598 33.580326,107.643524 33.118217,106.957466 
	C32.465805,99.081924 32.883305,92.024437 36.249893,85.442184 
	C38.034340,83.790550 39.818783,82.138908 42.239895,80.303818 
	C45.302570,78.857689 47.728577,77.595009 50.154583,76.332329 
	C50.566166,76.261452 50.977745,76.190567 51.947609,76.367729 
	C56.232052,76.952301 55.650673,74.286690 55.918968,71.967438 
	C56.881615,63.646111 57.994099,55.342117 59.293510,46.794716 
	C60.864620,45.130032 62.661572,43.903214 63.383965,42.216244 
	C64.068062,40.618717 64.413719,37.860752 63.512756,36.812382 
	C61.663845,34.660957 58.881348,33.311852 56.483162,31.632465 
	C56.266602,31.294092 56.050045,30.955717 56.080048,30.107117 
	C56.260448,28.548435 56.194279,27.499983 56.128113,26.451529 
	C66.068741,26.353045 76.009369,26.254559 86.455414,26.584957 
	C88.961319,27.431316 90.961807,27.848791 92.962296,28.266266 
	C93.380806,28.265211 93.799316,28.264158 94.586227,28.673334 
	C98.567047,30.759167 102.179466,32.434769 105.791878,34.110367 
	C106.054802,34.325455 106.317726,34.540543 106.785393,35.287338 
	C108.072273,36.457001 109.154396,37.094955 110.236526,37.732910 
	C110.236526,37.732910 110.066078,37.931839 110.071533,38.185394 
	C111.025452,39.306793 111.973915,40.174637 112.922379,41.042480 
	C113.142365,41.283756 113.368546,41.519073 113.765465,42.291672 
	C116.480759,47.612869 119.031509,52.390831 121.582260,57.168793 
	C121.722610,58.511803 121.862968,59.854809 121.698517,61.910553 
	C121.330383,66.194618 121.167900,69.767914 121.239136,73.336555 
	C121.285423,75.655731 121.791283,77.808090 124.982567,76.147980 
	C125.402458,76.159714 125.822342,76.171440 126.623283,76.603134 
	C130.584610,78.724762 134.164871,80.426422 137.745148,82.128082 
	C138.002670,82.365341 138.260178,82.602608 138.702087,83.390938 
	C140.845276,86.663391 142.804092,89.384781 144.762894,92.106163 
	C144.829956,92.527718 144.897003,92.949280 144.683624,94.000748 
	C144.403183,98.112404 144.403183,101.594139 144.403183,105.075874 
	C140.990433,99.082794 140.512054,98.635963 137.011185,98.902206 
	C135.291260,98.932129 133.571335,98.962051 131.200256,98.724510 
	C124.313873,99.215187 122.044258,101.577293 121.182999,108.204857 
	C119.573692,113.251717 117.964386,118.298584 115.810562,123.692093 
	C114.175415,126.357002 113.084778,128.675262 111.994141,130.993530 
	C111.994133,130.993530 112.000000,131.000000 111.648140,130.958069 
	C108.866547,133.947189 106.436813,136.978256 104.007080,140.009338 
	C101.278976,142.081192 98.550873,144.153046 95.181168,146.315216 
	C93.146370,146.887924 91.749916,147.361206 90.360481,147.854233 
	C81.973640,150.830292 73.562279,154.049759 64.468033,153.052383 
	C59.283974,152.483826 54.201881,150.985535 49.073875,149.905899 
M65.879723,89.851341 
	C67.439774,90.651711 68.999825,91.452080 71.130829,92.351387 
	C71.430832,92.583839 71.730835,92.816284 72.034851,93.810242 
	C74.638710,95.147362 75.317741,97.196373 75.368256,100.147003 
	C75.431656,103.849823 76.014397,107.821777 81.114876,109.465111 
	C81.408348,109.753952 81.701828,110.042793 82.084846,111.003777 
	C86.865204,115.300804 91.838104,114.996941 96.342903,109.760933 
	C96.600693,109.469582 96.858482,109.178223 97.809647,108.882111 
	C98.488541,108.215714 99.551369,107.661964 99.785217,106.864983 
	C101.557785,100.823677 102.553749,94.379425 109.434494,90.535233 
	C110.780838,88.060181 112.127190,85.585129 114.063553,83.052605 
	C113.703278,82.389229 113.342995,81.725845 112.062721,80.875984 
	C96.350449,80.832985 80.638168,80.789986 64.520050,80.263107 
	C61.393337,82.371101 61.797684,84.923637 65.982376,89.019875 
	C65.982376,89.019875 65.974541,89.094734 65.879723,89.851341 
M101.562271,54.991116 
	C98.149750,59.272259 98.887268,64.046509 100.559174,68.551254 
	C101.127365,70.082176 103.745438,71.919136 105.205925,71.746590 
	C106.615784,71.580025 108.596130,69.116333 108.814659,67.462120 
	C109.282516,63.920547 109.244835,60.154869 108.536034,56.659019 
	C107.813995,53.097797 105.430763,51.532646 101.562271,54.991116 
M67.456604,64.192322 
	C68.290138,66.450005 68.620232,69.135162 70.083344,70.858253 
	C71.955070,73.062546 75.468575,72.912674 75.978348,69.994316 
	C76.803757,65.268967 76.824486,60.170815 75.946289,55.461044 
	C75.351692,52.272209 71.804878,51.729328 69.960640,54.681942 
	C68.429512,57.133266 68.240540,60.422920 67.456604,64.192322 
z"/>
<path fill="#6B6B6B" opacity="1.000000" stroke="none" 
	d="
M49.076752,150.284119 
	C54.201881,150.985535 59.283974,152.483826 64.468033,153.052383 
	C73.562279,154.049759 81.973640,150.830292 90.360481,147.854233 
	C91.749916,147.361206 93.146370,146.887924 94.901489,146.538559 
	C84.780685,153.362320 73.255264,155.934952 61.014885,154.515121 
	C56.942291,154.042740 53.052814,151.991684 49.076752,150.284119 
z"/>
<path fill="#B1B1B1" opacity="1.000000" stroke="none" 
	d="
M36.710541,130.872818 
	C31.258476,133.138962 27.658916,129.055008 22.486847,125.651909 
	C23.621605,128.481049 24.351940,130.301910 25.082005,132.481445 
	C22.737888,129.791885 20.235691,126.846451 18.148520,123.631561 
	C17.537382,122.690216 18.106194,120.982834 18.134192,119.626549 
	C19.530172,119.999657 21.563723,119.914383 22.216259,120.821999 
	C25.824408,125.840591 30.188484,129.544327 36.710541,130.872818 
M20.339842,122.500923 
	C20.339842,122.500923 20.593748,122.646675 20.593748,122.646675 
	C20.593748,122.646675 20.552826,122.326836 20.339842,122.500923 
z"/>
<path fill="#A5A5A5" opacity="1.000000" stroke="none" 
	d="
M59.049942,47.031570 
	C57.994099,55.342117 56.881615,63.646111 55.918968,71.967438 
	C55.650673,74.286690 56.232052,76.952301 52.261681,76.376328 
	C52.617371,74.042374 53.690311,71.957283 53.732304,69.851646 
	C53.884518,62.219204 53.543434,54.553844 58.139874,47.339653 
	C58.714336,47.018188 58.882137,47.024879 59.049942,47.031570 
z"/>
<path fill="#ABABAB" opacity="1.000000" stroke="none" 
	d="
M137.286636,99.148209 
	C140.512054,98.635963 140.990433,99.082794 144.403183,105.075874 
	C144.403183,101.594139 144.403183,98.112404 144.662872,94.321121 
	C145.269974,97.448891 145.866196,100.888542 145.834198,104.322327 
	C145.822479,105.578148 144.319626,106.820076 143.497025,108.068336 
	C142.382248,106.841766 141.111465,105.720451 140.193939,104.360771 
	C139.151810,102.816490 138.425613,101.059006 137.286636,99.148209 
z"/>
<path fill="#7E7E7E" opacity="1.000000" stroke="none" 
	d="
M59.293514,46.794716 
	C58.882137,47.024879 58.714336,47.018188 58.294666,47.014465 
	C58.835629,45.462204 59.230667,43.304977 60.497868,42.467640 
	C63.932671,40.197987 63.074833,38.627819 60.425999,36.569481 
	C58.894203,35.379162 57.707760,33.744419 56.424526,31.971079 
	C58.881348,33.311852 61.663845,34.660957 63.512756,36.812382 
	C64.413719,37.860752 64.068062,40.618717 63.383965,42.216244 
	C62.661572,43.903214 60.864620,45.130032 59.293514,46.794716 
z"/>
<path fill="#979797" opacity="1.000000" stroke="none" 
	d="
M35.903000,85.406898 
	C32.883305,92.024437 32.465805,99.081924 32.829647,106.750793 
	C32.116295,104.478661 30.540462,101.557465 31.016556,99.021492 
	C31.893185,94.352028 33.975979,89.909004 35.903000,85.406898 
z"/>
<path fill="#ABABAB" opacity="1.000000" stroke="none" 
	d="
M121.705475,56.803078 
	C119.031509,52.390831 116.480759,47.612869 113.935349,42.467957 
	C116.570023,46.879791 119.199356,51.658577 121.705475,56.803078 
z"/>
<path fill="#B1B1B1" opacity="1.000000" stroke="none" 
	d="
M52.246784,99.169754 
	C56.748077,98.165009 58.171776,101.540359 58.922020,105.005531 
	C59.468327,107.528778 59.047295,110.261475 58.704391,113.018600 
	C57.953972,107.895874 58.393017,102.297745 52.246784,99.169754 
z"/>
<path fill="#ABABAB" opacity="1.000000" stroke="none" 
	d="
M124.675018,75.874313 
	C121.791283,77.808090 121.285423,75.655731 121.239136,73.336555 
	C121.167900,69.767914 121.330383,66.194618 121.663429,62.316669 
	C122.269531,65.104118 122.508064,68.213371 122.984718,71.285675 
	C123.213455,72.760017 123.892410,74.164505 124.675018,75.874313 
z"/>
<path fill="#ABABAB" opacity="1.000000" stroke="none" 
	d="
M121.509064,108.082672 
	C122.044258,101.577293 124.313873,99.215187 130.770767,98.703056 
	C126.594666,100.585777 123.558731,103.606339 121.509064,108.082672 
z"/>
<path fill="#B1B1B1" opacity="1.000000" stroke="none" 
	d="
M33.159912,141.271332 
	C37.104446,143.297318 41.065777,145.667297 45.073940,148.375229 
	C41.139416,146.347229 37.158062,143.981277 33.159912,141.271332 
z"/>
<path fill="#ABABAB" opacity="1.000000" stroke="none" 
	d="
M105.763474,33.766888 
	C102.179466,32.434769 98.567047,30.759167 94.890511,28.751591 
	C98.462608,30.087549 102.098839,31.755478 105.763474,33.766888 
z"/>
<path fill="#ABABAB" opacity="1.000000" stroke="none" 
	d="
M137.742645,81.781403 
	C134.164871,80.426422 130.584610,78.724762 126.929276,76.680786 
	C130.482864,78.037224 134.111496,79.735977 137.742645,81.781403 
z"/>
<path fill="#A2A2A2" opacity="1.000000" stroke="none" 
	d="
M104.348083,139.971008 
	C106.436813,136.978256 108.866547,133.947189 111.644791,130.955154 
	C109.558563,133.973679 107.123833,136.953186 104.348083,139.971008 
z"/>
<path fill="#ABABAB" opacity="1.000000" stroke="none" 
	d="
M144.886597,91.760361 
	C142.804092,89.384781 140.845276,86.663391 138.887268,83.577202 
	C140.928787,85.946457 142.969543,88.680511 144.886597,91.760361 
z"/>
<path fill="#979797" opacity="1.000000" stroke="none" 
	d="
M34.320107,107.805313 
	C35.082951,105.077393 36.112381,102.503120 37.508583,99.919922 
	C36.779137,102.593658 35.682911,105.276306 34.320107,107.805313 
z"/>
<path fill="#B1B1B1" opacity="1.000000" stroke="none" 
	d="
M48.579201,127.980301 
	C46.455757,129.149200 43.965107,130.375031 41.243969,131.340195 
	C43.412987,130.065430 45.812489,129.051331 48.579201,127.980301 
z"/>
<path fill="#A5A5A5" opacity="1.000000" stroke="none" 
	d="
M49.790314,76.186707 
	C47.728577,77.595009 45.302570,78.857689 42.499756,80.097839 
	C44.557312,78.730560 46.991680,77.385826 49.790314,76.186707 
z"/>
<path fill="#B1B1B1" opacity="1.000000" stroke="none" 
	d="
M55.393894,121.747055 
	C53.835533,123.516266 51.944374,125.361504 49.691292,127.176971 
	C51.239944,125.372490 53.150520,123.597778 55.393894,121.747055 
z"/>
<path fill="#B1B1B1" opacity="1.000000" stroke="none" 
	d="
M26.116619,134.274902 
	C28.108862,135.681595 30.076044,137.430679 32.056862,139.518143 
	C30.077522,138.110092 28.084541,136.363693 26.116619,134.274902 
z"/>
<path fill="#ABABAB" opacity="1.000000" stroke="none" 
	d="
M92.764366,27.956978 
	C90.961807,27.848791 88.961319,27.431316 86.906158,26.676582 
	C88.756477,26.775446 90.661453,27.211567 92.764366,27.956978 
z"/>
<path fill="#A2A2A2" opacity="1.000000" stroke="none" 
	d="
M112.339920,130.943939 
	C113.084778,128.675262 114.175415,126.357002 115.611732,124.005760 
	C114.866844,126.279968 113.776268,128.587143 112.339920,130.943939 
z"/>
<path fill="#B1B1B1" opacity="1.000000" stroke="none" 
	d="
M57.891602,116.251465 
	C57.724579,117.361801 57.318024,118.706413 56.591808,120.083298 
	C56.732121,118.905632 57.192097,117.695686 57.891602,116.251465 
z"/>
<path fill="#ABABAB" opacity="1.000000" stroke="none" 
	d="
M110.206406,37.404289 
	C109.154396,37.094955 108.072273,36.457001 106.961884,35.471237 
	C108.014519,35.774178 109.095406,36.424923 110.206406,37.404289 
z"/>
<path fill="#ABABAB" opacity="1.000000" stroke="none" 
	d="
M112.949661,40.708275 
	C111.973915,40.174637 111.025452,39.306793 110.170456,38.099545 
	C111.168274,38.631451 112.072617,39.502758 112.949661,40.708275 
z"/>
<path fill="#ABABAB" opacity="1.000000" stroke="none" 
	d="
M55.760448,26.484444 
	C56.194279,27.499983 56.260448,28.548435 55.990318,29.819427 
	C55.566940,28.867096 55.479862,27.692226 55.760448,26.484444 
z"/>
<path fill="#E63E1E" opacity="1.000000" stroke="none" 
	d="
M97.116264,108.886864 
	C96.858482,109.178223 96.600693,109.469582 95.757431,109.875458 
	C90.843994,112.582039 86.434952,112.046829 81.995308,110.331627 
	C81.701828,110.042793 81.408348,109.753952 80.871864,108.887375 
	C79.724030,105.713104 78.693947,103.151665 77.953499,100.509079 
	C77.346764,98.343704 77.084869,96.081696 76.780380,93.442642 
	C77.428993,85.135155 77.428993,85.135147 85.426216,85.135330 
	C86.910812,85.135361 88.395416,85.135422 89.880013,85.135468 
	C99.123726,85.135750 99.123726,85.135750 100.049423,94.317413 
	C98.925217,99.415726 98.020737,104.151299 97.116264,108.886864 
M80.516785,87.420204 
	C80.516785,87.420204 80.576157,87.522720 80.516785,87.420204 
z"/>
<path fill="#1F1412" opacity="1.000000" stroke="none" 
	d="
M100.269165,93.954666 
	C99.123726,85.135750 99.123726,85.135750 89.880013,85.135468 
	C88.395416,85.135422 86.910812,85.135361 85.426216,85.135330 
	C77.428993,85.135147 77.428993,85.135155 76.450859,93.422058 
	C74.684319,93.563820 73.357582,93.306282 72.030838,93.048737 
	C71.730835,92.816284 71.430832,92.583839 70.659340,92.050995 
	C68.783417,90.865318 67.378975,89.980026 65.974541,89.094734 
	C65.974541,89.094734 65.982376,89.019875 65.964752,88.654373 
	C65.606720,85.774902 65.266304,83.260941 64.925896,80.746979 
	C80.638168,80.789986 96.350449,80.832985 112.503746,81.327568 
	C113.121025,82.222794 113.297279,82.666435 113.473534,83.110077 
	C112.127190,85.585129 110.780838,88.060181 108.855148,90.792938 
	C105.606926,92.018654 102.938049,92.986656 100.269165,93.954666 
z"/>
<path fill="#2B2B2B" opacity="1.000000" stroke="none" 
	d="
M101.771851,54.671837 
	C105.430763,51.532646 107.813995,53.097797 108.536034,56.659019 
	C109.244835,60.154869 109.282516,63.920547 108.814659,67.462120 
	C108.596130,69.116333 106.615784,71.580025 105.205925,71.746590 
	C103.745438,71.919136 101.127365,70.082176 100.559174,68.551254 
	C98.887268,64.046509 98.149750,59.272259 101.771851,54.671837 
z"/>
<path fill="#2B2B2B" opacity="1.000000" stroke="none" 
	d="
M67.456802,63.766762 
	C68.240540,60.422920 68.429512,57.133266 69.960640,54.681942 
	C71.804878,51.729328 75.351692,52.272209 75.946289,55.461044 
	C76.824486,60.170815 76.803757,65.268967 75.978348,69.994316 
	C75.468575,72.912674 71.955070,73.062546 70.083344,70.858253 
	C68.620232,69.135162 68.290138,66.450005 67.456802,63.766762 
z"/>
<path fill="#CDB1AB" opacity="1.000000" stroke="none" 
	d="
M100.049423,94.317413 
	C102.938049,92.986656 105.606926,92.018654 108.634750,91.060287 
	C102.553749,94.379425 101.557785,100.823677 99.785217,106.864983 
	C99.551369,107.661964 98.488541,108.215714 97.462952,108.884491 
	C98.020737,104.151299 98.925217,99.415726 100.049423,94.317413 
z"/>
<path fill="#CDB1AB" opacity="1.000000" stroke="none" 
	d="
M72.032845,93.429489 
	C73.357582,93.306282 74.684319,93.563820 76.340591,93.841942 
	C77.084869,96.081696 77.346764,98.343704 77.953499,100.509079 
	C78.693947,103.151665 79.724030,105.713104 80.664886,108.657814 
	C76.014397,107.821777 75.431656,103.849823 75.368256,100.147003 
	C75.317741,97.196373 74.638710,95.147362 72.032845,93.429489 
z"/>
<path fill="#CDB1AB" opacity="1.000000" stroke="none" 
	d="
M82.040077,110.667702 
	C86.434952,112.046829 90.843994,112.582039 95.543869,110.074310 
	C91.838104,114.996941 86.865204,115.300804 82.040077,110.667702 
z"/>
<path fill="#CDB1AB" opacity="1.000000" stroke="none" 
	d="
M64.722977,80.505043 
	C65.266304,83.260941 65.606720,85.774902 65.927116,88.654068 
	C61.797684,84.923637 61.393337,82.371101 64.722977,80.505043 
z"/>
<path fill="#CDB1AB" opacity="1.000000" stroke="none" 
	d="
M65.927132,89.473038 
	C67.378975,89.980026 68.783417,90.865318 70.373863,92.001526 
	C68.999825,91.452080 67.439774,90.651711 65.927132,89.473038 
z"/>
<path fill="#CDB1AB" opacity="1.000000" stroke="none" 
	d="
M113.768539,83.081345 
	C113.297279,82.666435 113.121025,82.222794 112.963745,81.420807 
	C113.342995,81.725845 113.703278,82.389229 113.768539,83.081345 
z"/>
<path fill="#FCFBFB" opacity="1.000000" stroke="none" 
	d="
M20.446335,122.413879 
	C20.552826,122.326836 20.593748,122.646675 20.593748,122.646675 
	C20.593748,122.646675 20.339842,122.500923 20.446335,122.413879 
z"/>
<path fill="#ED4320" opacity="1.000000" stroke="none" 
	d="
M80.546471,87.471466 
	C80.576157,87.522720 80.516785,87.420204 80.546471,87.471466 
z"/>
</svg>